<mxfile host="app.diagrams.net" modified="2023-11-07T12:17:46.244Z" agent="Mozilla/5.0 (Windows NT 10.0; Win64; x64) AppleWebKit/537.36 (KHTML, like Gecko) Chrome/119.0.0.0 Safari/537.36" etag="4hPRt4kkAKRmffrgPFa8" version="22.0.8" type="device">
  <diagram name="Page-1" id="sWay9D1yXI4U5tFlYcU6">
    <mxGraphModel dx="1100" dy="1705" grid="1" gridSize="10" guides="1" tooltips="1" connect="1" arrows="1" fold="1" page="1" pageScale="1" pageWidth="850" pageHeight="1100" math="0" shadow="0">
      <root>
        <mxCell id="0" />
        <mxCell id="1" parent="0" />
        <mxCell id="gp4fF0EibF4HjZjE8fEZ-18" style="edgeStyle=orthogonalEdgeStyle;rounded=0;orthogonalLoop=1;jettySize=auto;html=1;exitX=0.5;exitY=1;exitDx=0;exitDy=0;entryX=0.5;entryY=0;entryDx=0;entryDy=0;" edge="1" parent="1" source="gp4fF0EibF4HjZjE8fEZ-1" target="gp4fF0EibF4HjZjE8fEZ-2">
          <mxGeometry relative="1" as="geometry" />
        </mxCell>
        <mxCell id="gp4fF0EibF4HjZjE8fEZ-1" value="BEGIN" style="ellipse;whiteSpace=wrap;html=1;" vertex="1" parent="1">
          <mxGeometry x="320" y="-1010" width="205" height="80" as="geometry" />
        </mxCell>
        <mxCell id="gp4fF0EibF4HjZjE8fEZ-19" style="edgeStyle=orthogonalEdgeStyle;rounded=0;orthogonalLoop=1;jettySize=auto;html=1;entryX=0.5;entryY=0;entryDx=0;entryDy=0;" edge="1" parent="1" source="gp4fF0EibF4HjZjE8fEZ-2" target="gp4fF0EibF4HjZjE8fEZ-7">
          <mxGeometry relative="1" as="geometry" />
        </mxCell>
        <mxCell id="gp4fF0EibF4HjZjE8fEZ-2" value="INPUT Num&amp;nbsp;" style="shape=parallelogram;perimeter=parallelogramPerimeter;whiteSpace=wrap;html=1;fixedSize=1;" vertex="1" parent="1">
          <mxGeometry x="325" y="-870" width="195" height="50" as="geometry" />
        </mxCell>
        <mxCell id="gp4fF0EibF4HjZjE8fEZ-10" style="edgeStyle=orthogonalEdgeStyle;rounded=0;orthogonalLoop=1;jettySize=auto;html=1;" edge="1" parent="1" source="gp4fF0EibF4HjZjE8fEZ-7" target="gp4fF0EibF4HjZjE8fEZ-11">
          <mxGeometry relative="1" as="geometry">
            <mxPoint x="230" y="-710" as="targetPoint" />
          </mxGeometry>
        </mxCell>
        <mxCell id="gp4fF0EibF4HjZjE8fEZ-7" value="Num &amp;gt;10&amp;nbsp;" style="rhombus;whiteSpace=wrap;html=1;" vertex="1" parent="1">
          <mxGeometry x="375" y="-750" width="95" height="80" as="geometry" />
        </mxCell>
        <mxCell id="gp4fF0EibF4HjZjE8fEZ-24" style="edgeStyle=orthogonalEdgeStyle;rounded=0;orthogonalLoop=1;jettySize=auto;html=1;entryX=0;entryY=0.5;entryDx=0;entryDy=0;exitX=0.5;exitY=1;exitDx=0;exitDy=0;" edge="1" parent="1" source="gp4fF0EibF4HjZjE8fEZ-11" target="gp4fF0EibF4HjZjE8fEZ-17">
          <mxGeometry relative="1" as="geometry" />
        </mxCell>
        <mxCell id="gp4fF0EibF4HjZjE8fEZ-11" value="DISPLAY&amp;nbsp; Num &amp;lt;10" style="shape=parallelogram;perimeter=parallelogramPerimeter;whiteSpace=wrap;html=1;fixedSize=1;" vertex="1" parent="1">
          <mxGeometry x="150" y="-740" width="140" height="60" as="geometry" />
        </mxCell>
        <mxCell id="gp4fF0EibF4HjZjE8fEZ-25" style="edgeStyle=orthogonalEdgeStyle;rounded=0;orthogonalLoop=1;jettySize=auto;html=1;entryX=1;entryY=0.5;entryDx=0;entryDy=0;exitX=0.5;exitY=1;exitDx=0;exitDy=0;" edge="1" parent="1" source="gp4fF0EibF4HjZjE8fEZ-12" target="gp4fF0EibF4HjZjE8fEZ-17">
          <mxGeometry relative="1" as="geometry" />
        </mxCell>
        <mxCell id="gp4fF0EibF4HjZjE8fEZ-13" value="True" style="text;html=1;strokeColor=none;fillColor=none;align=center;verticalAlign=middle;whiteSpace=wrap;rounded=0;" vertex="1" parent="1">
          <mxGeometry x="480" y="-740" width="60" height="30" as="geometry" />
        </mxCell>
        <mxCell id="gp4fF0EibF4HjZjE8fEZ-14" value="False" style="text;html=1;strokeColor=none;fillColor=none;align=center;verticalAlign=middle;whiteSpace=wrap;rounded=0;" vertex="1" parent="1">
          <mxGeometry x="310" y="-740" width="60" height="30" as="geometry" />
        </mxCell>
        <mxCell id="gp4fF0EibF4HjZjE8fEZ-16" style="edgeStyle=orthogonalEdgeStyle;rounded=0;orthogonalLoop=1;jettySize=auto;html=1;exitX=0;exitY=0.5;exitDx=0;exitDy=0;entryX=0.033;entryY=0.6;entryDx=0;entryDy=0;entryPerimeter=0;" edge="1" parent="1" source="gp4fF0EibF4HjZjE8fEZ-11" target="gp4fF0EibF4HjZjE8fEZ-11">
          <mxGeometry relative="1" as="geometry" />
        </mxCell>
        <mxCell id="gp4fF0EibF4HjZjE8fEZ-17" value="END" style="ellipse;whiteSpace=wrap;html=1;" vertex="1" parent="1">
          <mxGeometry x="325" y="-590" width="205" height="80" as="geometry" />
        </mxCell>
        <mxCell id="gp4fF0EibF4HjZjE8fEZ-26" value="" style="edgeStyle=orthogonalEdgeStyle;rounded=0;orthogonalLoop=1;jettySize=auto;html=1;" edge="1" parent="1" source="gp4fF0EibF4HjZjE8fEZ-7" target="gp4fF0EibF4HjZjE8fEZ-12">
          <mxGeometry relative="1" as="geometry">
            <mxPoint x="610" y="-710" as="targetPoint" />
            <mxPoint x="470" y="-710" as="sourcePoint" />
          </mxGeometry>
        </mxCell>
        <mxCell id="gp4fF0EibF4HjZjE8fEZ-12" value="DISPLAY Num &amp;gt; 10" style="shape=parallelogram;perimeter=parallelogramPerimeter;whiteSpace=wrap;html=1;fixedSize=1;" vertex="1" parent="1">
          <mxGeometry x="550" y="-740" width="140" height="60" as="geometry" />
        </mxCell>
      </root>
    </mxGraphModel>
  </diagram>
</mxfile>
